<svg width="125" height="125" viewBox="0 0 125 125" fill="none" xmlns="http://www.w3.org/2000/svg">
<path d="M91.3822 68.8731C95.2232 52.8203 85.3242 36.6932 69.2712 32.8521C53.2182 29.011 37.0912 38.9105 33.2502 54.9632C29.4092 71.016 39.3082 87.143 55.3612 90.984C71.4142 94.825 87.5412 84.926 91.3822 68.8731Z" fill="#FAAF40"/>
<path d="M62.33 23.925C60.249 23.925 58.563 22.239 58.563 20.158V3.767C58.563 1.686 60.249 0 62.33 0C64.411 0 66.097 1.686 66.097 3.767V20.158C66.097 22.239 64.411 23.925 62.33 23.925Z" fill="#FAAF40"/>
<path d="M62.33 124.659C60.249 124.659 58.563 122.973 58.563 120.892V104.501C58.563 102.42 60.249 100.734 62.33 100.734C64.411 100.734 66.097 102.42 66.097 104.501V120.892C66.097 122.973 64.411 124.659 62.33 124.659Z" fill="#FAAF40"/>
<path d="M120.892 66.097H104.501C102.42 66.097 100.734 64.411 100.734 62.33C100.734 60.249 102.42 58.563 104.501 58.563H120.892C122.973 58.563 124.659 60.249 124.659 62.33C124.659 64.411 122.973 66.097 120.892 66.097Z" fill="#FAAF40"/>
<path d="M3.767 66.097H20.158C22.239 66.097 23.925 64.411 23.925 62.33C23.925 60.249 22.239 58.563 20.158 58.563H3.767C1.686 58.563 0 60.249 0 62.33C0 64.411 1.686 66.097 3.767 66.097Z" fill="#FAAF40"/>
<path d="M32.5101 36.2771C31.5461 36.2771 30.5821 35.9091 29.8471 35.1731L18.2571 23.5831C16.7861 22.1131 16.7861 19.7271 18.2571 18.2561C19.7281 16.7851 22.1121 16.7851 23.5841 18.2561L35.1741 29.8461C36.6451 31.3161 36.6451 33.7021 35.1741 35.1731C34.4371 35.9091 33.4731 36.2771 32.5101 36.2771Z" fill="#FAAF40"/>
<path d="M103.739 107.507C102.775 107.507 101.811 107.139 101.076 106.403L89.487 94.813C88.016 93.342 88.016 90.957 89.487 89.486C90.958 88.015 93.342 88.015 94.814 89.486L106.403 101.076C107.874 102.547 107.874 104.932 106.403 106.403C105.666 107.139 104.703 107.507 103.739 107.507Z" fill="#FAAF40"/>
<path d="M20.9201 107.507C19.9561 107.507 18.9921 107.139 18.2571 106.403C16.7861 104.933 16.7861 102.547 18.2571 101.076L29.8471 89.486C31.3181 88.015 33.7021 88.015 35.1741 89.486C36.6451 90.956 36.6451 93.342 35.1741 94.813L23.5841 106.403C22.8471 107.139 21.8831 107.507 20.9201 107.507Z" fill="#FAAF40"/>
<path d="M92.15 36.2771C91.186 36.2771 90.222 35.9091 89.487 35.1731C88.016 33.7031 88.016 31.3181 89.487 29.8461L101.076 18.2561C102.545 16.7851 104.931 16.7851 106.403 18.2561C107.874 19.7261 107.874 22.1111 106.403 23.5831L94.814 35.1731C94.079 35.9091 93.114 36.2771 92.15 36.2771Z" fill="#FAAF40"/>
</svg>
