<svg width="175" height="133" viewBox="0 0 175 133" fill="none" xmlns="http://www.w3.org/2000/svg">
<path d="M84.953 81.4323C95.737 68.935 94.348 50.062 81.851 39.2782C69.354 28.4944 50.481 29.8834 39.697 42.3806C28.913 54.8778 30.302 73.7508 42.799 84.5346C55.296 95.3189 74.169 93.9295 84.953 81.4323Z" fill="#FAAF40"/>
<path d="M62.332 23.925C60.251 23.925 58.564 22.239 58.564 20.158V3.76699C58.564 1.68599 60.251 0 62.332 0C64.413 0 66.098 1.68599 66.098 3.76699V20.158C66.098 22.239 64.413 23.925 62.332 23.925Z" fill="#FAAF40"/>
<path d="M20.158 66.097H3.767C1.686 66.097 0 64.411 0 62.33C0 60.249 1.686 58.563 3.767 58.563H20.158C22.239 58.563 23.925 60.249 23.925 62.33C23.925 64.411 22.239 66.097 20.158 66.097Z" fill="#FAAF40"/>
<path d="M32.512 36.2771C31.548 36.2771 30.584 35.9091 29.849 35.1731L18.259 23.5831C16.788 22.1131 16.788 19.7271 18.259 18.2561C19.731 16.7851 22.114 16.7851 23.586 18.2561L35.176 29.8461C36.647 31.3161 36.647 33.7021 35.176 35.1731C34.439 35.9091 33.475 36.2771 32.512 36.2771Z" fill="#FAAF40"/>
<path d="M20.9201 107.507C19.9561 107.507 18.9921 107.139 18.2571 106.403C16.7861 104.933 16.7861 102.547 18.2571 101.076L29.8471 89.4861C31.3181 88.0151 33.702 88.0151 35.174 89.4861C36.645 90.9561 36.645 93.3421 35.174 94.8131L23.5841 106.403C22.8481 107.14 21.8841 107.507 20.9201 107.507Z" fill="#FAAF40"/>
<path d="M92.151 36.2771C91.187 36.2771 90.223 35.9091 89.488 35.1731C88.017 33.7031 88.017 31.3181 89.488 29.8461L101.077 18.2561C102.546 16.7851 104.932 16.7851 106.404 18.2561C107.875 19.7261 107.875 22.1111 106.404 23.5831L94.815 35.1731C94.08 35.9091 93.115 36.2771 92.151 36.2771Z" fill="#FAAF40"/>
<path d="M145.539 73.537C145.526 73.537 145.514 73.539 145.501 73.539C145.506 73.286 145.539 73.04 145.539 72.786C145.539 52.763 129.307 36.531 109.284 36.531C89.2611 36.531 73.0291 52.763 73.0291 72.786C73.0291 72.81 73.0331 72.832 73.0331 72.856C57.3271 73.585 44.8071 86.512 44.8071 102.399C44.8071 118.754 58.0651 132.012 74.4201 132.012H145.539C161.687 132.012 174.777 118.922 174.777 102.774C174.777 86.627 161.687 73.537 145.539 73.537Z" fill="#42BFEC"/>
</svg>
