<svg width="140" height="124" viewBox="0 0 140 124" fill="none" xmlns="http://www.w3.org/2000/svg">
<path d="M6.10699 98.214C9.47999 98.214 12.214 95.48 12.214 92.107C12.214 88.734 9.47999 86 6.10699 86C2.73499 86 0 88.734 0 92.107C0 95.48 2.73499 98.214 6.10699 98.214Z" fill="#ADE0F3"/>
<path d="M127.107 114.214C130.48 114.214 133.214 111.48 133.214 108.107C133.214 104.734 130.48 102 127.107 102C123.735 102 121 104.734 121 108.107C121 111.48 123.735 114.214 127.107 114.214Z" fill="#ADE0F3"/>
<path d="M69.107 123.214C72.48 123.214 75.214 120.48 75.214 117.107C75.214 113.734 72.48 111 69.107 111C65.734 111 63 113.734 63 117.107C63 120.48 65.734 123.214 69.107 123.214Z" fill="#ADE0F3"/>
<path d="M106.732 37.006C106.719 37.006 106.707 37.008 106.694 37.008C106.699 36.755 106.732 36.5089 106.732 36.2549C106.732 16.2319 90.5 0 70.477 0C50.454 0 34.222 16.2319 34.222 36.2549C34.222 36.2789 34.226 36.301 34.226 36.325C18.52 37.054 6 49.981 6 65.868C6 82.223 19.258 95.481 35.613 95.481H106.732C122.879 95.481 135.97 82.391 135.97 66.244C135.969 50.096 122.879 37.006 106.732 37.006Z" fill="#42BFEC"/>
<path d="M14.5822 62.1688C14.6308 60.7821 16.4019 59.6839 18.5423 59.7154L71.4628 60.4942C73.6032 60.5257 75.2956 61.6748 75.2471 63.0615C75.1985 64.4481 73.4274 65.5464 71.287 65.5149L18.3665 64.7361C16.2276 64.7047 14.5337 63.5554 14.5822 62.1688Z" fill="#ADE0F3"/>
<path d="M13.8352 83.4993C13.8838 82.1126 15.6549 81.0144 17.7953 81.0459L37.3739 81.334C39.5143 81.3655 41.2068 82.5147 41.1582 83.9013C41.1097 85.288 39.3385 86.3862 37.1981 86.3547L17.6195 86.0666C15.4806 86.0351 13.7867 84.8859 13.8352 83.4993Z" fill="#ADE0F3"/>
<path d="M13.0881 104.829C13.1367 103.442 14.9078 102.344 17.0482 102.375L57.5516 102.971C59.6921 103.003 61.3845 104.152 61.3359 105.539C61.2874 106.925 59.5163 108.024 57.3758 107.992L16.8724 107.396C14.7335 107.365 13.0396 106.215 13.0881 104.829Z" fill="#ADE0F3"/>
<path d="M79.752 105.81C79.8006 104.423 81.5717 103.325 83.7121 103.356L102.066 103.626C104.207 103.658 105.899 104.807 105.851 106.194C105.802 107.58 104.031 108.679 101.89 108.647L83.5363 108.377C81.3959 108.345 79.7035 107.196 79.752 105.81Z" fill="#ADE0F3"/>
<path d="M49.5445 84.0247C49.593 82.6381 51.3641 81.5399 53.5046 81.5714L132.323 82.7312C134.464 82.7627 136.156 83.9119 136.107 85.2985C136.059 86.6852 134.288 87.7834 132.147 87.7519L53.3288 86.5921C51.1883 86.5606 49.4959 85.4114 49.5445 84.0247Z" fill="#ADE0F3"/>
<path d="M89.8831 63.2768C89.9317 61.8902 91.7028 60.792 93.8433 60.8235L117.064 61.1652C119.205 61.1967 120.897 62.3459 120.849 63.7325C120.8 65.1192 119.029 66.2174 116.888 66.1859L93.6675 65.8442C91.5286 65.8127 89.8346 64.6635 89.8831 63.2768Z" fill="#ADE0F3"/>
<path d="M133.107 78.214C136.48 78.214 139.214 75.48 139.214 72.107C139.214 68.734 136.48 66 133.107 66C129.735 66 127 68.734 127 72.107C127 75.48 129.735 78.214 133.107 78.214Z" fill="#ADE0F3"/>
</svg>
