<svg width="58" height="50" viewBox="0 0 58 50" fill="none" xmlns="http://www.w3.org/2000/svg">
<path d="M41.996 15.429C41.991 15.429 41.986 15.429 41.98 15.429C41.982 15.324 41.996 15.221 41.996 15.115C41.996 6.76799 35.229 0 26.881 0C18.533 0 11.766 6.76799 11.766 15.115C11.766 15.125 11.768 15.135 11.768 15.145C5.22001 15.449 0 20.838 0 27.461C0 34.28 5.52701 39.807 12.346 39.807H41.996C48.728 39.807 54.186 34.35 54.186 27.618C54.185 20.886 48.728 15.429 41.996 15.429Z" fill="#68ABFF"/>
<path d="M39.5591 33.892C39.5591 33.314 40.3561 32.846 41.3421 32.846H53.2111C54.1971 32.846 54.9941 33.314 54.9941 33.892C54.9941 34.471 54.1971 34.939 53.2111 34.939H41.3421C40.3571 34.939 39.5591 34.47 39.5591 33.892Z" fill="#ADE0F3"/>
<path d="M5.47607 33.892C5.47607 33.314 6.27309 32.846 7.25909 32.846H31.6261C32.6121 32.846 33.4091 33.314 33.4091 33.892C33.4091 34.471 32.6121 34.939 31.6261 34.939H7.25909C6.27409 34.939 5.47607 34.47 5.47607 33.892Z" fill="#ADE0F3"/>
<path d="M37 41.047C37 40.469 37.797 40 38.783 40H56.089C57.074 40 57.872 40.469 57.872 41.047C57.872 41.625 57.074 42.094 56.089 42.094H38.783C37.797 42.094 37 41.625 37 41.047Z" fill="#ADE0F3"/>
<path d="M26.4229 40.98C26.4229 40.402 27.2208 39.933 28.2058 39.933H39.4818C40.4668 39.933 41.2648 40.402 41.2648 40.98C41.2648 41.558 40.4668 42.027 39.4818 42.027H28.2058C27.2208 42.027 26.4229 41.558 26.4229 40.98Z" fill="#ADE0F3"/>
<path d="M5.47607 40.98C5.47607 40.402 6.27309 39.933 7.25909 39.933H16.2741C17.2591 39.933 18.0571 40.402 18.0571 40.98C18.0571 41.558 17.2591 42.027 16.2741 42.027H7.25909C6.27409 42.027 5.47607 41.558 5.47607 40.98Z" fill="#ADE0F3"/>
<path d="M5.47607 48.068C5.47607 47.489 6.27309 47.021 7.25909 47.021H31.6261C32.6121 47.021 33.4091 47.489 33.4091 48.068C33.4091 48.646 32.6121 49.114 31.6261 49.114H7.25909C6.27409 49.114 5.47607 48.646 5.47607 48.068Z" fill="#ADE0F3"/>
<path d="M40.1479 48.068C40.1479 47.489 40.945 47.021 41.931 47.021H52.623C53.609 47.021 54.406 47.489 54.406 48.068C54.406 48.646 53.609 49.114 52.623 49.114H41.931C40.946 49.114 40.1479 48.646 40.1479 48.068Z" fill="#ADE0F3"/>
</svg>
