<svg width="273" height="179" viewBox="0 0 273 179" fill="none" xmlns="http://www.w3.org/2000/svg">
<path d="M39.166 150.349L31.373 178.245H24.779L19.543 158.382L14.068 178.245L7.51401 178.285L0 150.349H5.995L10.911 172.01L16.586 150.349H22.821L28.176 171.89L33.132 150.349H39.166ZM63.402 166.695C63.402 167.494 63.349 168.214 63.242 168.853H47.056C47.189 170.452 47.749 171.704 48.735 172.61C49.721 173.516 50.933 173.969 52.372 173.969C54.45 173.969 55.929 173.076 56.808 171.291H62.843C62.203 173.422 60.978 175.181 59.166 176.566C57.354 177.925 55.129 178.605 52.492 178.605C50.36 178.605 48.442 178.138 46.736 177.206C45.058 176.247 43.739 174.901 42.78 173.169C41.847 171.438 41.381 169.439 41.381 167.175C41.381 164.883 41.847 162.872 42.78 161.14C43.712 159.408 45.018 158.076 46.697 157.143C48.375 156.211 50.307 155.744 52.492 155.744C54.596 155.744 56.475 156.197 58.127 157.103C59.805 158.009 61.097 159.301 62.003 160.98C62.936 162.632 63.402 164.537 63.402 166.695ZM57.607 165.096C57.58 163.658 57.061 162.512 56.048 161.659C55.036 160.78 53.797 160.34 52.332 160.34C50.946 160.34 49.774 160.767 48.815 161.619C47.882 162.445 47.309 163.604 47.096 165.096H57.607ZM66.047 167.095C66.047 164.857 66.487 162.872 67.366 161.14C68.272 159.408 69.484 158.076 71.003 157.143C72.548 156.211 74.267 155.744 76.159 155.744C77.81 155.744 79.249 156.077 80.475 156.744C81.727 157.41 82.726 158.249 83.472 159.261V156.104H89.107V178.245H83.472V175.008C82.753 176.047 81.754 176.913 80.475 177.606C79.223 178.272 77.771 178.605 76.119 178.605C74.254 178.605 72.548 178.125 71.003 177.166C69.484 176.207 68.272 174.861 67.366 173.129C66.487 171.371 66.047 169.359 66.047 167.095ZM83.472 167.175C83.472 165.816 83.206 164.657 82.673 163.698C82.14 162.712 81.421 161.966 80.515 161.459C79.609 160.927 78.636 160.66 77.597 160.66C76.558 160.66 75.599 160.913 74.72 161.42C73.841 161.926 73.121 162.672 72.562 163.658C72.029 164.617 71.762 165.762 71.762 167.095C71.762 168.427 72.029 169.599 72.562 170.612C73.121 171.597 73.841 172.357 74.72 172.89C75.626 173.422 76.585 173.689 77.597 173.689C78.636 173.689 79.609 173.436 80.515 172.93C81.421 172.397 82.14 171.651 82.673 170.692C83.206 169.706 83.472 168.533 83.472 167.175ZM101.086 160.7V171.411C101.086 172.157 101.26 172.703 101.606 173.049C101.979 173.369 102.592 173.529 103.444 173.529H106.042V178.245H102.525C97.809 178.245 95.451 175.954 95.451 171.371V160.7H92.814V156.104H95.451V150.629H101.086V156.104H106.042V160.7H101.086ZM122.536 155.784C124.214 155.784 125.706 156.157 127.012 156.903C128.317 157.623 129.33 158.702 130.049 160.141C130.795 161.553 131.168 163.258 131.168 165.256V178.245H125.573V166.016C125.573 164.257 125.134 162.912 124.254 161.979C123.375 161.02 122.176 160.54 120.657 160.54C119.112 160.54 117.886 161.02 116.981 161.979C116.101 162.912 115.662 164.257 115.662 166.016V178.245H110.067V148.671H115.662V158.862C116.381 157.903 117.34 157.157 118.539 156.624C119.738 156.064 121.07 155.784 122.536 155.784ZM157.071 166.695C157.071 167.494 157.018 168.214 156.911 168.853H140.725C140.859 170.452 141.418 171.704 142.404 172.61C143.39 173.516 144.602 173.969 146.041 173.969C148.119 173.969 149.598 173.076 150.477 171.291H156.512C155.872 173.422 154.647 175.181 152.835 176.566C151.023 177.925 148.798 178.605 146.161 178.605C144.029 178.605 142.111 178.138 140.406 177.206C138.727 176.247 137.408 174.901 136.449 173.169C135.517 171.438 135.05 169.439 135.05 167.175C135.05 164.883 135.517 162.872 136.449 161.14C137.382 159.408 138.687 158.076 140.366 157.143C142.044 156.211 143.976 155.744 146.161 155.744C148.266 155.744 150.144 156.197 151.796 157.103C153.474 158.009 154.767 159.301 155.672 160.98C156.605 162.632 157.071 164.537 157.071 166.695ZM151.276 165.096C151.25 163.658 150.73 162.512 149.718 161.659C148.705 160.78 147.466 160.34 146.001 160.34C144.615 160.34 143.443 160.767 142.484 161.619C141.551 162.445 140.979 163.604 140.765 165.096H151.276ZM166.75 159.541C167.47 158.369 168.402 157.45 169.548 156.784C170.72 156.117 172.053 155.784 173.545 155.784V161.659H172.066C170.307 161.659 168.975 162.072 168.069 162.898C167.19 163.724 166.75 165.163 166.75 167.215V178.245H161.155V156.104H166.75V159.541ZM210.696 178.245H205.1L192.431 159.102V178.245H186.836V150.309H192.431L205.1 169.493V150.309H210.696V178.245ZM226.056 178.605C223.925 178.605 222.007 178.138 220.301 177.206C218.596 176.247 217.251 174.901 216.265 173.169C215.306 171.438 214.826 169.439 214.826 167.175C214.826 164.91 215.319 162.912 216.305 161.18C217.317 159.448 218.689 158.116 220.421 157.183C222.153 156.224 224.085 155.744 226.216 155.744C228.348 155.744 230.279 156.224 232.011 157.183C233.743 158.116 235.102 159.448 236.088 161.18C237.1 162.912 237.606 164.91 237.606 167.175C237.606 169.439 237.087 171.438 236.048 173.169C235.035 174.901 233.65 176.247 231.891 177.206C230.16 178.138 228.215 178.605 226.056 178.605ZM226.056 173.729C227.069 173.729 228.015 173.489 228.894 173.01C229.8 172.503 230.519 171.757 231.052 170.771C231.585 169.786 231.851 168.587 231.851 167.175C231.851 165.07 231.292 163.458 230.173 162.339C229.081 161.193 227.735 160.62 226.136 160.62C224.538 160.62 223.192 161.193 222.1 162.339C221.034 163.458 220.501 165.07 220.501 167.175C220.501 169.279 221.021 170.905 222.06 172.05C223.126 173.169 224.458 173.729 226.056 173.729ZM272.404 156.104L265.93 178.245H259.895L255.859 162.778L251.822 178.245H245.747L239.233 156.104H244.908L248.825 172.97L253.061 156.104H258.976L263.132 172.93L267.049 156.104H272.404Z" fill="white"/>
<path d="M203.295 18.7728V115.188C203.295 116.116 203.224 117.026 203.093 117.918C202.725 120.476 201.832 122.867 200.523 124.985C200.25 125.437 199.953 125.871 199.637 126.305C196.229 130.939 190.72 133.949 184.522 133.949H88.1202C83.4982 133.949 79.2631 132.277 75.9911 129.493C74.4751 128.214 73.1601 126.685 72.1191 124.984C71.9291 124.669 71.7451 124.354 71.5781 124.032C70.7151 122.45 70.0902 120.731 69.7222 118.911C69.4782 117.709 69.3481 116.466 69.3481 115.187V18.7728C69.3481 8.4051 77.7532 0 88.1202 0H184.523C190.965 0 196.645 3.2418 200.018 8.1847C202.088 11.201 203.295 14.8415 203.295 18.7728Z" fill="url(#paint0_linear_15_149)"/>
<path d="M124.417 86.8721C145.383 86.8721 162.38 69.8751 162.38 48.9091C162.38 27.9433 145.383 10.947 124.417 10.947C103.451 10.947 86.4551 27.9433 86.4551 48.9091C86.4551 69.8751 103.451 86.8721 124.417 86.8721Z" fill="url(#paint1_linear_15_149)"/>
<path opacity="0.4" d="M124.416 10.9453C103.454 10.9453 86.4541 27.9457 86.4541 48.9071C86.4541 69.8751 103.454 86.8741 124.416 86.8741C145.383 86.8741 162.377 69.8741 162.377 48.9071C162.378 27.9457 145.383 10.9453 124.416 10.9453ZM124.416 83.9001C105.125 83.9001 89.4281 68.2031 89.4281 48.9071C89.4281 29.6166 105.125 13.9194 124.416 13.9194C143.712 13.9194 159.403 29.6166 159.403 48.9071C159.404 68.2031 143.712 83.9001 124.416 83.9001Z" fill="white"/>
<path opacity="0.5" d="M162.379 48.9111C162.379 69.8761 145.384 86.8711 124.419 86.8711C108.697 86.8711 95.2041 77.3161 89.4351 63.6861C96.3971 72.4461 107.146 78.0721 119.2 78.0721C140.173 78.0721 157.168 61.0771 157.168 40.1121C157.168 34.8763 156.11 29.8878 154.192 25.353C159.316 31.829 162.379 40.0081 162.379 48.9111Z" fill="url(#paint2_linear_15_149)"/>
<path d="M203.294 18.9475V78.0081C201.52 77.7131 199.801 77.2521 198.147 76.6551C194.542 81.7001 188.647 84.9781 181.98 84.9781C177.54 84.9781 173.443 83.5221 170.124 81.0641C167.308 84.7081 162.908 87.0551 157.943 87.0551C153.328 87.0551 149.191 85.0181 146.359 81.8041C144.943 82.6871 143.272 83.2051 141.473 83.2051C136.309 83.2051 132.125 79.0191 132.125 73.8471C132.125 68.6921 136.31 64.5071 141.473 64.5071C142.381 64.5071 143.248 64.6421 144.083 64.8801C146.582 59.7481 151.841 56.2001 157.944 56.2001C159.973 56.2001 161.898 56.6051 163.68 57.3131C166.282 51.2111 171.843 46.6761 178.566 45.5221C179.887 32.0441 190.126 21.1994 203.294 18.9475Z" fill="url(#paint3_linear_15_149)"/>
<path d="M203.295 27.7192V85.5301C202.504 85.3161 201.725 85.0721 200.963 84.7991C197.358 89.8431 191.464 93.1201 184.796 93.1201C180.359 93.1201 176.26 91.6631 172.942 89.2061C170.129 92.8471 165.726 95.1961 160.76 95.1961C156.144 95.1961 152.009 93.1561 149.178 89.9431C147.762 90.8241 146.091 91.3411 144.288 91.3411C139.125 91.3411 134.944 87.1591 134.944 81.9851C134.944 76.8331 139.126 72.6461 144.288 72.6461C145.198 72.6461 146.067 72.7821 146.9 73.0201C149.398 67.8871 154.656 64.3411 160.76 64.3411C162.788 64.3411 164.715 64.7461 166.499 65.4531C169.099 59.3501 174.66 54.8121 181.382 53.6641C182.607 41.1691 191.506 30.9249 203.295 27.7192Z" fill="url(#paint4_linear_15_149)"/>
<path d="M102.923 75.5591C102.923 82.5811 97.2341 88.2711 90.2111 88.2711C87.7741 88.2711 85.4981 87.5701 83.5671 86.3751C80.0271 90.3871 75.0041 93.0531 69.3491 93.4551V51.6181C76.9921 52.1691 83.4751 56.8251 86.6701 63.3641C87.7971 63.0421 88.9811 62.8591 90.2101 62.8591C97.2331 62.8581 102.923 68.5471 102.923 75.5591Z" fill="url(#paint5_linear_15_149)"/>
<path d="M102.923 81.2101C102.923 88.2331 97.2341 93.9231 90.2111 93.9231C87.7741 93.9231 85.4981 93.2221 83.5671 92.0261C80.0271 96.0381 75.0041 98.7051 69.3491 99.1071V57.2691C76.9921 57.8211 83.4751 62.4751 86.6701 69.0161C87.7971 68.6941 88.9811 68.5101 90.2101 68.5101C97.2331 68.5101 102.923 74.1991 102.923 81.2101Z" fill="url(#paint6_linear_15_149)"/>
<path d="M203.295 74.8161V105.145H69.3501V78.7781C129.476 65.6821 187.724 72.5561 203.295 74.8161Z" fill="url(#paint7_linear_15_149)"/>
<path opacity="0.3" d="M203.295 87.1401V105.145H69.3501V85.3821C84.1561 83.1461 135.745 76.9881 203.295 87.1401Z" fill="url(#paint8_linear_15_149)"/>
<path opacity="0.4" d="M203.295 74.8161V79.4541C192.49 77.4571 171.493 74.4261 142.858 74.2901C107.405 74.1151 78.3801 80.0821 69.3501 82.1661V78.7771C129.476 65.6821 187.724 72.5561 203.295 74.8161Z" fill="white"/>
<path d="M203.295 95.2731V117.901L203.096 117.917C202.721 120.479 201.83 122.866 200.525 124.982C200.247 125.436 199.953 125.873 199.634 126.303C196.229 130.941 190.723 133.949 184.525 133.949H88.1181C83.4951 133.949 79.2631 132.278 75.9931 129.493C74.4731 128.212 73.1601 126.684 72.1181 124.981C71.9271 124.671 71.7441 124.353 71.5771 124.034C70.7181 122.451 70.0891 120.732 69.7231 118.911C69.4761 117.709 69.3501 116.468 69.3501 115.187V89.3771C95.6851 86.1071 147.902 82.5591 203.295 95.2731Z" fill="url(#paint9_linear_15_149)"/>
<path opacity="0.3" d="M203.295 103.532V117.901L203.096 117.917L75.9931 129.494C74.4731 128.213 73.1601 126.685 72.1181 124.982C71.9271 124.672 71.7441 124.354 71.5771 124.035C70.7181 122.452 70.0891 120.733 69.7231 118.912C69.4761 117.71 69.3501 116.469 69.3501 115.188V109.308C76.2001 108.266 87.5141 106.651 101.247 105.147C130.899 101.893 171.812 99.1081 203.295 103.532Z" fill="url(#paint10_linear_15_149)"/>
<path d="M203.295 104.924V117.901L203.096 117.917C202.722 120.479 201.831 122.866 200.526 124.982C200.248 125.436 199.953 125.873 199.635 126.303C196.229 130.941 190.724 133.949 184.526 133.949H88.1191C83.4961 133.949 79.2631 132.278 75.9931 129.493C74.4741 128.212 73.1611 126.684 72.1181 124.981C71.9271 124.671 71.7451 124.353 71.5781 124.034C70.7191 122.451 70.0891 120.732 69.7241 118.911C69.9941 118.832 70.2731 118.752 70.5511 118.68C71.1081 118.529 71.6891 118.369 72.2851 118.202C72.5801 118.123 72.8821 118.043 73.1931 117.956C74.0121 117.742 74.8711 117.51 75.7541 117.288C76.9721 116.97 78.2531 116.652 79.5891 116.326C80.0831 116.206 80.5921 116.087 81.1011 115.96C82.7401 115.57 84.4671 115.164 86.2731 114.767C86.8301 114.639 87.3951 114.512 87.9671 114.393C88.4281 114.29 88.8901 114.187 89.3681 114.091C89.9561 113.964 90.5531 113.836 91.1581 113.709C93.0751 113.303 95.0641 112.905 97.1251 112.507C97.7701 112.387 98.4231 112.261 99.0911 112.134C100.42 111.879 101.772 111.633 103.156 111.394C104.469 111.156 105.814 110.925 107.19 110.694C107.254 110.686 107.325 110.67 107.397 110.662C108.781 110.432 110.198 110.201 111.637 109.97C112.401 109.859 113.165 109.74 113.936 109.62C114.7 109.5 115.48 109.389 116.267 109.278C120.19 108.706 124.296 108.164 128.568 107.663C132.57 107.194 136.716 106.765 141.012 106.382C142.938 106.208 144.894 106.048 146.876 105.905C147.521 105.849 148.164 105.801 148.809 105.762C148.976 105.746 149.143 105.73 149.31 105.722C150.48 105.634 151.658 105.555 152.843 105.484C152.867 105.484 152.883 105.476 152.907 105.484C153.854 105.42 154.808 105.364 155.771 105.309C156.718 105.245 157.672 105.198 158.635 105.15H158.778C160.902 105.03 163.051 104.935 165.238 104.855C166.288 104.816 167.346 104.784 168.413 104.752C170.203 104.688 172.025 104.649 173.855 104.617C174.762 104.593 175.676 104.577 176.6 104.569H176.775C177.682 104.554 178.589 104.545 179.496 104.538C182.352 104.513 185.248 104.513 188.184 104.545C189.004 104.553 189.823 104.561 190.65 104.577C191.176 104.585 191.693 104.593 192.218 104.601C193.411 104.625 194.621 104.649 195.83 104.68C196.65 104.705 197.477 104.72 198.304 104.752C199.953 104.797 201.624 104.853 203.295 104.924Z" fill="url(#paint11_linear_15_149)"/>
<path opacity="0.3" d="M203.295 104.924V109.364C152.454 104.543 92.5741 118.522 71.5781 124.035C70.7191 122.452 70.0891 120.733 69.7241 118.912C69.9941 118.832 70.2731 118.752 70.5511 118.681C71.1081 118.522 71.6891 118.362 72.2851 118.203C72.5801 118.124 72.8821 118.044 73.1931 117.957C74.0121 117.743 74.8711 117.52 75.7541 117.289C76.9721 116.97 78.2531 116.653 79.5891 116.326C80.0831 116.207 80.5921 116.088 81.1011 115.961C82.7401 115.571 84.4671 115.165 86.2731 114.768C86.8301 114.64 87.3951 114.513 87.9671 114.394C88.4281 114.291 88.8901 114.187 89.3681 114.092C89.9561 113.964 90.5531 113.837 91.1581 113.71C93.0751 113.304 95.0641 112.906 97.1251 112.508C97.7701 112.38 98.4301 112.253 99.0911 112.134C100.42 111.879 101.772 111.633 103.156 111.395C104.469 111.156 105.814 110.926 107.19 110.695C107.254 110.687 107.325 110.671 107.397 110.663C108.781 110.432 110.198 110.202 111.637 109.971C112.401 109.86 113.165 109.74 113.936 109.621C114.7 109.501 115.48 109.39 116.267 109.279C120.19 108.706 124.296 108.165 128.568 107.664C132.57 107.195 136.716 106.765 141.012 106.383C142.938 106.208 144.894 106.049 146.876 105.905C147.521 105.849 148.164 105.802 148.809 105.762C148.976 105.747 149.143 105.731 149.31 105.723C150.48 105.635 151.658 105.556 152.843 105.484C152.867 105.484 152.883 105.477 152.907 105.484C153.854 105.421 154.808 105.365 155.771 105.31C156.718 105.246 157.672 105.199 158.635 105.15H158.778C160.902 105.031 163.051 104.936 165.238 104.856C166.288 104.816 167.346 104.785 168.413 104.753C170.203 104.689 172.025 104.649 173.855 104.618C174.762 104.593 175.676 104.578 176.6 104.57H176.775C177.682 104.555 178.589 104.546 179.496 104.538C182.352 104.514 185.248 104.514 188.184 104.546C189.004 104.554 189.823 104.562 190.65 104.578C191.176 104.586 191.693 104.593 192.218 104.602C193.411 104.626 194.621 104.65 195.83 104.681C196.65 104.705 197.477 104.721 198.304 104.753C199.953 104.797 201.624 104.853 203.295 104.924Z" fill="white"/>
<path opacity="0.4" d="M203.295 95.2721V97.8261C164.68 90.8431 123.421 89.1371 69.3501 92.5331V89.3761C95.6851 86.1061 147.902 82.5571 203.295 95.2721Z" fill="white"/>
<path opacity="0.5" d="M199.634 126.303C196.229 130.941 190.723 133.949 184.525 133.949H98.374C124.311 126.319 164.277 118.18 199.634 126.303Z" fill="url(#paint12_linear_15_149)"/>
<path d="M158.175 16.6879C157.001 16.0956 155.593 15.8847 154.231 16.1111C152.869 16.3246 151.551 16.9943 150.538 17.9886C150.029 18.4844 149.603 19.0637 149.258 19.6878C149.234 19.7326 149.214 19.7791 149.192 19.8238C149.149 19.7989 149.106 19.7705 149.063 19.7464C148.435 19.4089 147.764 19.1515 147.066 19.0129C145.676 18.7254 144.208 18.8804 142.947 19.4365C141.681 19.984 140.612 20.924 139.946 22.0568C139.278 23.1862 138.989 24.4981 139.17 25.7041C139.559 24.5532 140.175 23.5779 140.958 22.841C141.737 22.1016 142.664 21.6049 143.628 21.3716C144.11 21.2502 144.601 21.2003 145.082 21.2072C145.563 21.2218 146.039 21.2872 146.492 21.4233C146.945 21.5584 147.383 21.74 147.783 21.988C148.185 22.2281 148.556 22.5191 148.877 22.8582C149.058 23.0511 149.3 23.1905 149.581 23.2439C150.287 23.3782 150.968 22.9142 151.102 22.2083L151.103 22.2023C151.19 21.7443 151.342 21.2976 151.553 20.8784C151.754 20.454 152.022 20.0632 152.331 19.705C152.638 19.3444 153.003 19.0345 153.399 18.7607C153.597 18.6247 153.809 18.5059 154.028 18.3975C154.246 18.2873 154.474 18.19 154.709 18.1117C155.645 17.7854 156.693 17.701 157.747 17.8999C158.275 17.9963 158.801 18.1685 159.315 18.4061C159.828 18.6462 160.324 18.9579 160.803 19.3332C160.302 18.2227 159.349 17.2758 158.175 16.6879Z" fill="url(#paint13_linear_15_149)"/>
<path d="M101.975 43.2751C101.526 42.0401 100.645 40.9211 99.498 40.1521C98.36 39.3751 96.941 38.9591 95.522 38.9881C94.812 39.0001 94.104 39.1301 93.426 39.3491C93.377 39.3651 93.3311 39.3861 93.2841 39.4021C93.2691 39.3541 93.259 39.3051 93.243 39.2581C93.017 38.5821 92.7041 37.9351 92.2921 37.3561C91.4771 36.1951 90.3 35.3007 89.002 34.8418C87.704 34.3727 86.282 34.3254 85.02 34.6938C83.759 35.0588 82.6511 35.8172 81.9561 36.8181C83.0291 36.2471 84.144 35.9583 85.22 35.9575C86.294 35.9532 87.3091 36.2261 88.1721 36.7171C88.6061 36.9591 88.9981 37.2601 89.3441 37.5941C89.6841 37.9341 89.985 38.3071 90.222 38.7171C90.459 39.1261 90.655 39.5591 90.775 40.0131C90.903 40.4641 90.976 40.9291 90.976 41.3961C90.976 41.6611 91.0571 41.9281 91.2241 42.1601C91.6461 42.7421 92.4601 42.8711 93.0421 42.4481L93.0471 42.4451C93.4241 42.1711 93.841 41.9501 94.281 41.7891C94.719 41.6171 95.182 41.5171 95.652 41.4681C96.123 41.4151 96.6 41.4391 97.076 41.5111C97.314 41.5481 97.55 41.6071 97.783 41.6781C98.017 41.7471 98.2501 41.8331 98.4741 41.9371C99.3801 42.3411 100.2 42.9971 100.833 43.8641C101.151 44.2961 101.417 44.7821 101.628 45.3071C101.837 45.8341 101.984 46.4001 102.076 47.0021C102.472 45.8501 102.427 44.5071 101.975 43.2751Z" fill="url(#paint14_linear_15_149)"/>
<defs>
<linearGradient id="paint0_linear_15_149" x1="136.321" y1="-1.8037" x2="136.321" y2="170.907" gradientUnits="userSpaceOnUse">
<stop stop-color="#B3F3FF"/>
<stop offset="0.8346" stop-color="#73CFFF"/>
<stop offset="1" stop-color="#66C7FF"/>
</linearGradient>
<linearGradient id="paint1_linear_15_149" x1="124.418" y1="18.1291" x2="124.418" y2="87.9021" gradientUnits="userSpaceOnUse">
<stop stop-color="#FFB917"/>
<stop offset="0.8559" stop-color="#FF7903"/>
<stop offset="1" stop-color="#FF6E00"/>
</linearGradient>
<linearGradient id="paint2_linear_15_149" x1="125.907" y1="31.1719" x2="125.907" y2="87.7051" gradientUnits="userSpaceOnUse">
<stop stop-color="#FFB917"/>
<stop offset="0.8559" stop-color="#FF7903"/>
<stop offset="1" stop-color="#FF6E00"/>
</linearGradient>
<linearGradient id="paint3_linear_15_149" x1="161.868" y1="35.0006" x2="176.271" y2="65.6851" gradientUnits="userSpaceOnUse">
<stop stop-color="white"/>
<stop offset="0.8671" stop-color="#BFF2FF"/>
<stop offset="1" stop-color="#B5F0FF"/>
</linearGradient>
<linearGradient id="paint4_linear_15_149" x1="169.26" y1="56.0681" x2="174.552" y2="86.4951" gradientUnits="userSpaceOnUse">
<stop stop-color="white"/>
<stop offset="0.8671" stop-color="#BFF2FF"/>
<stop offset="1" stop-color="#B5F0FF"/>
</linearGradient>
<linearGradient id="paint5_linear_15_149" x1="86.8631" y1="49.2111" x2="85.7331" y2="71.8151" gradientUnits="userSpaceOnUse">
<stop stop-color="white"/>
<stop offset="0.8671" stop-color="#BFF2FF"/>
<stop offset="1" stop-color="#B5F0FF"/>
</linearGradient>
<linearGradient id="paint6_linear_15_149" x1="86.1361" y1="65.5451" x2="86.1361" y2="90.6021" gradientUnits="userSpaceOnUse">
<stop stop-color="white"/>
<stop offset="0.8671" stop-color="#BFF2FF"/>
<stop offset="1" stop-color="#B5F0FF"/>
</linearGradient>
<linearGradient id="paint7_linear_15_149" x1="136.322" y1="73.2131" x2="136.322" y2="104.847" gradientUnits="userSpaceOnUse">
<stop stop-color="#7BC5FF"/>
<stop offset="0.3918" stop-color="#4D85FF"/>
<stop offset="1" stop-color="#001AFF"/>
</linearGradient>
<linearGradient id="paint8_linear_15_149" x1="69.3491" y1="93.3131" x2="203.295" y2="93.3131" gradientUnits="userSpaceOnUse">
<stop stop-color="#7BC5FF"/>
<stop offset="0.3918" stop-color="#4D85FF"/>
<stop offset="1" stop-color="#001AFF"/>
</linearGradient>
<linearGradient id="paint9_linear_15_149" x1="136.322" y1="-71.324" x2="136.322" y2="354.76" gradientUnits="userSpaceOnUse">
<stop stop-color="#8965FF"/>
<stop offset="0.643" stop-color="#B025FF"/>
<stop offset="1" stop-color="#C700FF"/>
</linearGradient>
<linearGradient id="paint10_linear_15_149" x1="69.3491" y1="115.367" x2="203.295" y2="115.367" gradientUnits="userSpaceOnUse">
<stop stop-color="#6A65FF"/>
<stop offset="0.643" stop-color="#8425FF"/>
<stop offset="1" stop-color="#9400FF"/>
</linearGradient>
<linearGradient id="paint11_linear_15_149" x1="136.509" y1="107.301" x2="136.509" y2="134.348" gradientUnits="userSpaceOnUse">
<stop stop-color="#FFB917"/>
<stop offset="0.8559" stop-color="#FF7903"/>
<stop offset="1" stop-color="#FF6E00"/>
</linearGradient>
<linearGradient id="paint12_linear_15_149" x1="149.004" y1="123.971" x2="149.004" y2="134.099" gradientUnits="userSpaceOnUse">
<stop stop-color="#FFB917"/>
<stop offset="0.8559" stop-color="#FF7903"/>
<stop offset="1" stop-color="#FF6E00"/>
</linearGradient>
<linearGradient id="paint13_linear_15_149" x1="148.624" y1="19.7555" x2="150.36" y2="23.2734" gradientUnits="userSpaceOnUse">
<stop stop-color="white"/>
<stop offset="0.8671" stop-color="#BFF2FF"/>
<stop offset="1" stop-color="#B5F0FF"/>
</linearGradient>
<linearGradient id="paint14_linear_15_149" x1="92.917" y1="38.9641" x2="91.771" y2="42.7171" gradientUnits="userSpaceOnUse">
<stop stop-color="white"/>
<stop offset="0.8671" stop-color="#BFF2FF"/>
<stop offset="1" stop-color="#B5F0FF"/>
</linearGradient>
</defs>
</svg>
