<svg width="153" height="128" viewBox="0 0 153 128" fill="none" xmlns="http://www.w3.org/2000/svg">
<path d="M63.768 23.925C61.687 23.925 60 22.239 60 20.158V3.76699C60 1.68599 61.687 0 63.768 0C65.849 0 67.534 1.68599 67.534 3.76699V20.158C67.534 22.239 65.849 23.925 63.768 23.925Z" fill="#FAAF40"/>
<path d="M84.953 81.4323C95.737 68.935 94.348 50.062 81.851 39.2782C69.354 28.4944 50.481 29.8834 39.697 42.3806C28.913 54.8778 30.302 73.7508 42.799 84.5346C55.296 95.3189 74.169 93.9295 84.953 81.4323Z" fill="#FAAF40"/>
<path d="M20.158 66.097H3.767C1.686 66.097 0 64.411 0 62.33C0 60.249 1.686 58.563 3.767 58.563H20.158C22.239 58.563 23.925 60.249 23.925 62.33C23.925 64.411 22.239 66.097 20.158 66.097Z" fill="#FAAF40"/>
<path d="M32.512 36.2771C31.548 36.2771 30.584 35.9091 29.849 35.1731L18.259 23.5831C16.788 22.1131 16.788 19.7271 18.259 18.2561C19.731 16.7851 22.114 16.7851 23.586 18.2561L35.176 29.8461C36.647 31.3161 36.647 33.7021 35.176 35.1731C34.439 35.9091 33.475 36.2771 32.512 36.2771Z" fill="#FAAF40"/>
<path d="M20.9201 107.507C19.9561 107.507 18.9921 107.139 18.2571 106.403C16.7861 104.933 16.7861 102.547 18.2571 101.076L29.8471 89.4861C31.3181 88.0151 33.702 88.0151 35.174 89.4861C36.645 90.9561 36.645 93.3421 35.174 94.8131L23.5841 106.403C22.8481 107.14 21.8841 107.507 20.9201 107.507Z" fill="#FAAF40"/>
<path d="M92.151 36.2771C91.187 36.2771 90.223 35.9091 89.488 35.1731C88.017 33.7031 88.017 31.3181 89.488 29.8461L101.077 18.2561C102.546 16.7851 104.932 16.7851 106.404 18.2561C107.875 19.7261 107.875 22.1111 106.404 23.5831L94.815 35.1731C94.08 35.9091 93.115 36.2771 92.151 36.2771Z" fill="#FAAF40"/>
<path d="M123.732 51.006C123.719 51.006 123.707 51.008 123.694 51.008C123.699 50.755 123.732 50.509 123.732 50.255C123.732 30.232 107.5 14 87.477 14C67.454 14 51.222 30.232 51.222 50.255C51.222 50.279 51.226 50.301 51.226 50.325C35.52 51.054 23 63.981 23 79.8679C23 96.2229 36.258 109.481 52.613 109.481H123.732C139.88 109.481 152.97 96.3909 152.97 80.2429C152.97 64.096 139.88 51.006 123.732 51.006Z" fill="#42BFEC"/>
<path d="M113.5 98L111.357 101.548C110.886 102.328 110.865 103.247 111.392 104.005C111.765 104.541 112.404 105 113.5 105C114.596 105 115.235 104.541 115.608 104.005C116.135 103.247 116.114 102.328 115.643 101.548L113.5 98Z" fill="#ADE0F3"/>
<path d="M69 96L64.7137 102.589C63.7712 104.038 63.7296 105.744 64.7841 107.151C65.5298 108.147 66.8084 109 69 109C71.1917 109 72.4702 108.147 73.2159 107.151C74.2704 105.744 74.2288 104.037 73.2863 102.589L69 96Z" fill="#ADE0F3"/>
<path d="M108 113L105.428 116.548C104.863 117.328 104.838 118.247 105.47 119.005C105.918 119.541 106.685 120 108 120C109.315 120 110.082 119.541 110.53 119.005C111.162 118.247 111.137 117.328 110.572 116.548L108 113Z" fill="#ADE0F3"/>
<path d="M95.0001 88L86.4272 101.685C84.5421 104.693 84.4596 108.237 86.5683 111.16C88.0599 113.228 90.6168 115 95.0001 115C99.3835 115 101.94 113.228 103.432 111.16C105.541 108.237 105.457 104.693 103.573 101.685L95.0001 88Z" fill="#ADE0F3"/>
<path d="M79.5 112L82.3395 116.977L88 118.111L84.0945 122.322L84.7533 128L79.5 125.625L74.2467 128L74.9055 122.322L71 118.111L76.6605 116.977L79.5 112Z" fill="#ADE0F3"/>
<path d="M54 104L55.3363 106.488L58 107.056L56.1621 109.161L56.4721 112L54 110.813L51.5279 112L51.8379 109.161L50 107.056L52.6637 106.488L54 104Z" fill="#ADE0F3"/>
<path d="M78 85L79.3363 87.1774L82 87.6736L80.1621 89.5158L80.4721 92L78 90.9611L75.5279 92L75.8379 89.5158L74 87.6736L76.6637 87.1774L78 85Z" fill="#ADE0F3"/>
</svg>
