<svg width="130" height="145" viewBox="0 0 130 145" fill="none" xmlns="http://www.w3.org/2000/svg">
<path d="M100.732 37.006C100.719 37.006 100.707 37.008 100.694 37.008C100.699 36.755 100.732 36.5091 100.732 36.2551C100.732 16.2321 84.5 0 64.477 0C44.454 0 28.222 16.2321 28.222 36.2551C28.222 36.2791 28.226 36.301 28.226 36.325C12.52 37.054 0 49.981 0 65.8681C0 82.2231 13.258 95.4811 29.613 95.4811H100.732C116.88 95.4811 129.97 82.3911 129.97 66.2431C129.969 50.096 116.879 37.006 100.732 37.006Z" fill="#42BFEC"/>
<path d="M51 113L46.7137 119.589C45.7712 121.038 45.7296 122.744 46.7841 124.151C47.5298 125.147 48.8084 126 51 126C53.1917 126 54.4702 125.147 55.2159 124.151C56.2704 122.744 56.2288 121.037 55.2863 119.589L51 113Z" fill="#ADE0F3"/>
<path d="M38 126L33.7137 132.589C32.7712 134.038 32.7296 135.744 33.7841 137.151C34.5298 138.147 35.8084 139 38 139C40.1917 139 41.4702 138.147 42.2159 137.151C43.2704 135.744 43.2288 134.037 42.2863 132.589L38 126Z" fill="#ADE0F3"/>
<path d="M100 121L97.4282 124.548C96.8627 125.328 96.8378 126.247 97.4705 127.005C97.9179 127.541 98.685 128 100 128C101.315 128 102.082 127.541 102.53 127.005C103.162 126.247 103.137 125.328 102.572 124.548L100 121Z" fill="#ADE0F3"/>
<path d="M65 126L62.4282 130.055C61.8627 130.946 61.8378 131.996 62.4705 132.862C62.9179 133.475 63.685 134 65 134C66.315 134 67.0821 133.475 67.5295 132.862C68.1622 131.996 68.1373 130.946 67.5718 130.055L65 126Z" fill="#ADE0F3"/>
<path d="M33 96L28.7137 102.589C27.7712 104.038 27.7296 105.744 28.7841 107.151C29.5298 108.147 30.8084 109 33 109C35.1917 109 36.4702 108.147 37.2159 107.151C38.2704 105.744 38.2288 104.037 37.2863 102.589L33 96Z" fill="#ADE0F3"/>
<path d="M99.5 100L94.7851 106.589C93.7483 108.038 93.7026 109.744 94.8626 111.151C95.6828 112.147 97.0892 113 99.5 113C101.911 113 103.317 112.147 104.137 111.151C105.297 109.744 105.252 108.037 104.215 106.589L99.5 100Z" fill="#ADE0F3"/>
<path d="M73 104L68.7137 110.589C67.7712 112.038 67.7296 113.744 68.7841 115.151C69.5298 116.147 70.8084 117 73 117C75.1917 117 76.4702 116.147 77.2159 115.151C78.2704 113.744 78.2288 112.037 77.2863 110.589L73 104Z" fill="#ADE0F3"/>
<path d="M84.5 89L79.7851 95.589C78.7483 97.0378 78.7026 98.744 79.8626 100.151C80.6828 101.147 82.0892 102 84.5 102C86.9108 102 88.3172 101.147 89.1374 100.151C90.2974 98.744 90.2517 97.0374 89.2149 95.589L84.5 89Z" fill="#ADE0F3"/>
<path d="M51.4997 87L45.0704 97.6436C43.6567 99.9837 43.5945 102.74 45.1765 105.013C46.2953 106.621 48.2129 108 51.5002 108C54.7876 108 56.7052 106.622 57.824 105.013C59.4054 102.74 59.3432 99.9837 57.9296 97.6436L51.4997 87Z" fill="#ADE0F3"/>
<path d="M69.5 86L65.6423 91.5752C64.7941 92.8009 64.7567 94.2448 65.7058 95.4358C66.3772 96.2782 67.5275 97 69.5 97C71.4725 97 72.6234 96.2778 73.2942 95.4358C74.2433 94.2448 74.2059 92.8009 73.3577 91.5752L69.5 86Z" fill="#ADE0F3"/>
<path d="M87.0001 118L78.4272 131.685C76.5421 134.693 76.4596 138.237 78.5683 141.16C80.0599 143.228 82.6168 145 87.0001 145C91.3835 145 93.9404 143.228 95.4319 141.16C97.5407 138.237 97.4574 134.693 95.5731 131.685L87.0001 118Z" fill="#ADE0F3"/>
</svg>
