<svg width="25" height="25" viewBox="0 0 25 25" fill="none" xmlns="http://www.w3.org/2000/svg">
<path d="M17.0799 10.9779C17.0799 12.5959 16.4369 14.1479 15.2929 15.2919C14.1489 16.4359 12.5979 17.0779 10.9799 17.0779C9.36186 17.0779 7.81087 16.4359 6.66687 15.2919C5.52287 14.1479 4.87988 12.5959 4.87988 10.9779C4.87988 9.36091 5.52287 7.80889 6.66687 6.66489C7.81087 5.52089 9.36186 4.87891 10.9799 4.87891C12.5979 4.87891 14.1489 5.52089 15.2929 6.66489C16.4369 7.80889 17.0799 9.36091 17.0799 10.9779Z" fill="black" fill-opacity="0.87"/>
<path fill-rule="evenodd" clip-rule="evenodd" d="M0 10.9779C0 9.22492 0.421013 7.49591 1.22601 5.93791C2.03101 4.37991 3.19803 3.0379 4.62903 2.0229C6.05903 1.0089 7.71197 0.351919 9.44897 0.106919C11.186 -0.137081 12.956 0.0379053 14.611 0.617905C16.266 1.19791 17.758 2.1659 18.962 3.4409C20.167 4.7159 21.048 6.26092 21.532 7.94692C22.017 9.63192 22.09 11.4089 21.747 13.1289C21.404 14.8489 20.653 16.4619 19.559 17.8319L24.042 22.3149C24.264 22.5459 24.387 22.8539 24.384 23.1739C24.382 23.4929 24.253 23.7989 24.027 24.0259C23.801 24.2519 23.495 24.3799 23.175 24.3829C22.855 24.3859 22.547 24.2629 22.317 24.0399L17.834 19.5569C16.218 20.8479 14.271 21.6559 12.217 21.8889C10.162 22.1219 8.08303 21.7699 6.22003 20.8739C4.35703 19.9769 2.78402 18.5729 1.68402 16.8219C0.584021 15.0719 0 13.0459 0 10.9779ZM10.98 2.43892C9.85798 2.43892 8.74798 2.65991 7.71198 3.08891C6.67598 3.51791 5.73398 4.14693 4.94098 4.93993C4.14798 5.73293 3.51903 6.67392 3.09003 7.70992C2.66103 8.74592 2.44 9.85692 2.44 10.9779C2.44 12.0999 2.66103 13.2099 3.09003 14.2459C3.51903 15.2819 4.14798 16.2239 4.94098 17.0169C5.73398 17.8099 6.67598 18.4389 7.71198 18.8679C8.74798 19.2969 9.85798 19.5179 10.98 19.5179C13.245 19.5179 15.417 18.6179 17.018 17.0169C18.62 15.4149 19.52 13.2429 19.52 10.9779C19.52 8.71392 18.62 6.54093 17.018 4.93993C15.417 3.33793 13.245 2.43892 10.98 2.43892Z" fill="black" fill-opacity="0.87"/>
</svg>
