<svg width="130" height="134" viewBox="0 0 130 134" fill="none" xmlns="http://www.w3.org/2000/svg">
<path d="M100.732 37.006C100.719 37.006 100.707 37.008 100.694 37.008C100.699 36.755 100.732 36.509 100.732 36.255C100.732 16.232 84.5 0 64.477 0C44.454 0 28.222 16.232 28.222 36.255C28.222 36.279 28.2261 36.301 28.2261 36.325C12.5201 37.054 0 49.981 0 65.868C0 82.223 13.2581 95.481 29.6131 95.481H100.732C116.88 95.481 129.97 82.391 129.97 66.243C129.969 50.096 116.879 37.006 100.732 37.006Z" fill="#42BFEC"/>
<path d="M42.8905 100.53L48.6925 110.806L60.2585 113.148L52.2785 121.842L53.6245 133.566L42.8905 128.663L32.1565 133.566L33.5025 121.842L25.5225 113.148L37.0885 110.806L42.8905 100.53Z" fill="#ADE0F3"/>
<path d="M83.0418 63.525L90.6528 77.005L105.826 80.078L95.357 91.483L97.124 106.863L83.0418 100.43L68.9608 106.863L70.7268 91.483L60.2578 80.078L75.4308 77.005L83.0418 63.525Z" fill="#ADE0F3"/>
<path d="M78.5002 111L80.6712 115.044L85 115.965L82.0133 119.387L82.5171 124L78.5002 122.071L74.4829 124L74.9867 119.387L72 115.965L76.3288 115.044L78.5002 111Z" fill="#ADE0F3"/>
<path d="M102.5 110L103.669 112.177L106 112.674L104.392 114.516L104.663 117L102.5 115.961L100.337 117L100.608 114.516L99 112.674L101.331 112.177L102.5 110Z" fill="#ADE0F3"/>
<path d="M110 90L112.338 94.0438L117 94.9654L113.784 98.3866L114.326 103L110 101.071L105.674 103L106.216 98.3866L103 94.9654L107.662 94.0438L110 90Z" fill="#ADE0F3"/>
<path d="M44.0001 71L45.6702 74.7328L49 75.5835L46.7026 78.7415L47.0901 83L44.0001 81.2191L40.9099 83L41.2974 78.7415L39 75.5835L42.3298 74.7328L44.0001 71Z" fill="#ADE0F3"/>
<path d="M19.0002 83L22.3404 89.2213L29 90.6391L24.4051 95.9024L25.1802 103L19.0002 100.032L12.8198 103L13.5949 95.9024L9 90.6391L15.6596 89.2213L19.0002 83Z" fill="#ADE0F3"/>
</svg>
