<svg width="130" height="144" viewBox="0 0 130 144" fill="none" xmlns="http://www.w3.org/2000/svg">
<path d="M90.062 105.319L80.8351 124.927C78.8061 129.238 78.717 134.315 80.987 138.504C82.592 141.466 85.345 144.006 90.062 144.006C94.78 144.006 97.5321 141.467 99.1371 138.504C101.407 134.315 101.317 129.238 99.289 124.927L90.062 105.319Z" fill="#ADE0F3"/>
<path d="M100.733 37.006C100.72 37.006 100.708 37.008 100.695 37.008C100.7 36.755 100.733 36.509 100.733 36.255C100.733 16.232 84.501 0 64.478 0C44.455 0 28.223 16.232 28.223 36.255C28.223 36.279 28.226 36.301 28.226 36.325C12.52 37.054 0 49.981 0 65.868C0 82.223 13.258 95.481 29.613 95.481H100.732C116.88 95.481 129.97 82.391 129.97 66.243C129.97 50.096 116.88 37.006 100.733 37.006Z" fill="#42BFEC"/>
<path d="M90.0619 86.61H54.0319L72.2999 54.132H54.0319L28.1499 100.751H56.0609L44.8969 142.939L90.0619 86.61Z" fill="#FAAF40"/>
</svg>
