<svg width="58" height="50" viewBox="0 0 58 50" fill="none" xmlns="http://www.w3.org/2000/svg">
<path d="M41.07 15.087C41.064 15.087 41.06 15.088 41.054 15.088C41.056 14.985 41.07 14.885 41.07 14.781C41.07 6.61801 34.452 0 26.288 0C18.125 0 11.507 6.61801 11.507 14.781C11.507 14.791 11.508 14.8 11.508 14.81C5.105 15.107 0 20.377 0 26.855C0 33.523 5.405 38.928 12.073 38.928H41.069C47.653 38.928 52.99 33.591 52.99 27.008C52.99 20.425 47.653 15.087 41.07 15.087Z" fill="#42BFEC"/>
<path d="M49.8531 25.383H25.9831C24.8521 25.383 23.9351 24.466 23.9351 23.335C23.9351 22.204 24.8521 21.287 25.9831 21.287H49.8531C51.5601 21.287 52.9491 19.899 52.9491 18.192C52.9491 16.485 51.5601 15.096 49.8531 15.096H46.8211C45.6901 15.096 44.7731 14.179 44.7731 13.048C44.7731 11.917 45.6901 11 46.8211 11H49.8531C53.8191 11 57.0451 14.225 57.0451 18.191C57.0441 22.157 53.8191 25.383 49.8531 25.383Z" fill="#ADE0F3"/>
<path d="M42.073 49.913C37.017 49.913 32.904 45.799 32.904 40.744C32.904 37.287 35.715 34.475 39.172 34.475C42.628 34.475 45.44 37.287 45.44 40.744V41.798C45.44 42.929 44.523 43.846 43.392 43.846C42.261 43.846 41.344 42.929 41.344 41.798V40.744C41.344 39.546 40.369 38.571 39.171 38.571C37.974 38.571 36.999 39.546 36.999 40.744C36.999 43.541 39.275 45.817 42.073 45.817C44.871 45.817 47.147 43.541 47.147 40.744V38.648C47.147 34.824 44.036 31.713 40.211 31.713H8.04803C6.91703 31.713 6 30.796 6 29.665C6 28.534 6.91703 27.617 8.04803 27.617H40.211C46.294 27.617 51.242 32.565 51.242 38.648V40.743C51.242 45.799 47.129 49.913 42.073 49.913Z" fill="#ADE0F3"/>
</svg>
