<svg width="177" height="149" viewBox="0 0 177 149" fill="none" xmlns="http://www.w3.org/2000/svg">
<path d="M125.175 37.006C125.162 37.006 125.15 37.0081 125.137 37.0081C125.142 36.7551 125.175 36.509 125.175 36.255C125.175 16.232 108.943 0 88.9199 0C68.8969 0 52.6649 16.232 52.6649 36.255C52.6649 36.279 52.6689 36.301 52.6689 36.325C36.9629 37.054 24.4429 49.981 24.4429 65.868C24.4429 82.223 37.7008 95.481 54.0558 95.481H125.175C141.322 95.481 154.413 82.391 154.413 66.244C154.412 50.096 141.322 37.006 125.175 37.006Z" fill="#42BFEC"/>
<path d="M133.959 113.418H44.6571C42.5771 113.418 40.8901 111.731 40.8901 109.651C40.8901 107.571 42.5771 105.884 44.6571 105.884H133.959C136.039 105.884 137.726 107.571 137.726 109.651C137.726 111.731 136.038 113.418 133.959 113.418Z" fill="#ADE0F3"/>
<path d="M172.552 113.418H153.585C151.505 113.418 149.818 111.731 149.818 109.651C149.818 107.571 151.505 105.884 153.585 105.884H172.552C174.632 105.884 176.319 107.571 176.319 109.651C176.319 111.731 174.632 113.418 172.552 113.418Z" fill="#ADE0F3"/>
<path d="M168.822 148.264H29.093C27.013 148.264 25.3259 146.577 25.3259 144.497C25.3259 142.417 27.013 140.73 29.093 140.73H168.822C170.902 140.73 172.589 142.417 172.589 144.497C172.589 146.577 170.902 148.264 168.822 148.264Z" fill="#ADE0F3"/>
<path d="M108.605 130.84H3.76697C1.68697 130.84 0 129.153 0 127.073C0 124.993 1.68697 123.306 3.76697 123.306H108.605C110.685 123.306 112.372 124.993 112.372 127.073C112.372 129.152 110.685 130.84 108.605 130.84Z" fill="#ADE0F3"/>
<path d="M160.717 130.84H130.037C127.957 130.84 126.27 129.153 126.27 127.073C126.27 124.993 127.957 123.306 130.037 123.306H160.717C162.797 123.306 164.484 124.993 164.484 127.073C164.484 129.152 162.797 130.84 160.717 130.84Z" fill="#ADE0F3"/>
</svg>
