<svg width="176" height="464" viewBox="0 0 176 464" fill="none" xmlns="http://www.w3.org/2000/svg">
<path d="M87.529 463.059C39.266 463.059 0 423.793 0 375.529C0 347.208 13.693 320.681 36.707 304.263L36.706 50.824C36.706 22.8 59.505 0 87.529 0C115.553 0 138.353 22.799 138.353 50.824V304.265C161.366 320.684 175.059 347.209 175.059 375.53C175.059 423.793 135.793 463.059 87.529 463.059Z" fill="url(#paint0_linear_5_696)"/>
<path d="M87.529 439.059C52.499 439.059 24 410.56 24 375.529C24 354.612 34.293 335.041 51.534 323.177L60.706 316.865V135.53C60.706 120.74 72.739 108.707 87.529 108.707C102.319 108.707 114.353 120.74 114.353 135.53V316.867L123.525 323.179C140.766 335.043 151.059 354.614 151.059 375.531C151.059 410.56 122.559 439.059 87.529 439.059Z" fill="url(#paint1_linear_5_696)"/>
<path d="M133.883 279.53H125.412C124.632 279.53 124 278.899 124 278.118C124 277.338 124.632 276.706 125.412 276.706H133.883C134.663 276.706 135.295 277.337 135.295 278.118C135.294 278.898 134.662 279.53 133.883 279.53Z" fill="#808285"/>
<path d="M133.883 251.295H125.412C124.632 251.295 124 250.664 124 249.883C124 249.103 124.632 248.471 125.412 248.471H133.883C134.663 248.471 135.295 249.102 135.295 249.883C135.294 250.663 134.662 251.295 133.883 251.295Z" fill="#808285"/>
<path d="M133.883 223.059H125.412C124.632 223.059 124 222.428 124 221.647C124 220.867 124.632 220.235 125.412 220.235H133.883C134.663 220.235 135.295 220.867 135.295 221.647C135.294 222.428 134.662 223.059 133.883 223.059Z" fill="#808285"/>
<path d="M133.883 194.824H125.412C124.632 194.824 124 194.193 124 193.412C124 192.632 124.632 192 125.412 192H133.883C134.663 192 135.295 192.632 135.295 193.412C135.294 194.193 134.662 194.824 133.883 194.824Z" fill="#808285"/>
<path d="M133.883 166.589H125.412C124.632 166.589 124 165.957 124 165.177C124 164.397 124.632 163.765 125.412 163.765H133.883C134.663 163.765 135.295 164.397 135.295 165.177C135.295 165.957 134.662 166.589 133.883 166.589Z" fill="#808285"/>
<path d="M133.883 138.354H125.412C124.632 138.354 124 137.722 124 136.942C124 136.162 124.632 135.53 125.412 135.53H133.883C134.663 135.53 135.295 136.161 135.295 136.942C135.294 137.722 134.662 138.354 133.883 138.354Z" fill="#808285"/>
<path d="M133.883 110.118H125.412C124.632 110.118 124 109.486 124 108.706C124 107.926 124.632 107.294 125.412 107.294H133.883C134.663 107.294 135.295 107.925 135.295 108.706C135.294 109.487 134.662 110.118 133.883 110.118Z" fill="#808285"/>
<path d="M133.883 81.8831H125.412C124.632 81.8831 124 81.2521 124 80.4711C124 79.6911 124.632 79.0591 125.412 79.0591H133.883C134.663 79.0591 135.295 79.6901 135.295 80.4711C135.294 81.2511 134.662 81.8831 133.883 81.8831Z" fill="#808285"/>
<path d="M133.883 53.648H125.412C124.632 53.648 124 53.017 124 52.236C124 51.456 124.632 50.824 125.412 50.824H133.883C134.663 50.824 135.295 51.455 135.295 52.236C135.294 53.016 134.662 53.648 133.883 53.648Z" fill="#808285"/>
<defs>
<linearGradient id="paint0_linear_5_696" x1="-0.0001" y1="231.53" x2="175.059" y2="231.53" gradientUnits="userSpaceOnUse">
<stop stop-color="white"/>
<stop offset="1" stop-color="#D1D3D4"/>
</linearGradient>
<linearGradient id="paint1_linear_5_696" x1="23.9999" y1="273.883" x2="151.059" y2="273.883" gradientUnits="userSpaceOnUse">
<stop stop-color="#FFCA05"/>
<stop offset="1" stop-color="#FAAC18"/>
</linearGradient>
</defs>
</svg>
