<svg width="195" height="126" viewBox="0 0 195 126" fill="none" xmlns="http://www.w3.org/2000/svg">
<path d="M100.733 37.006C100.72 37.006 100.708 37.008 100.695 37.008C100.7 36.755 100.733 36.509 100.733 36.255C100.733 16.232 84.501 0 64.478 0C44.455 0 28.223 16.232 28.223 36.255C28.223 36.279 28.226 36.301 28.226 36.325C12.52 37.054 0 49.981 0 65.868C0 82.223 13.258 95.481 29.613 95.481H100.732C116.88 95.481 129.97 82.391 129.97 66.243C129.97 50.097 116.88 37.006 100.733 37.006Z" fill="#42BFEC"/>
<path d="M177.078 65.037H118.531C115.757 65.037 113.508 62.788 113.508 60.015C113.508 57.241 115.757 54.992 118.531 54.992H177.078C181.264 54.992 184.671 51.586 184.671 47.399C184.671 43.213 181.265 39.806 177.078 39.806H169.64C166.866 39.806 164.617 37.557 164.617 34.783C164.617 32.009 166.866 29.76 169.64 29.76H177.078C186.804 29.76 194.716 37.671 194.716 47.398C194.715 57.126 186.804 65.037 177.078 65.037Z" fill="#ADE0F3"/>
<path d="M157.995 125.202C145.593 125.202 135.504 115.113 135.504 102.713C135.504 94.235 142.4 87.339 150.878 87.339C159.356 87.339 166.252 94.235 166.252 102.713V105.3C166.252 108.074 164.003 110.323 161.229 110.323C158.455 110.323 156.206 108.074 156.206 105.3V102.713C156.206 99.775 153.815 97.384 150.877 97.384C147.939 97.384 145.548 99.775 145.548 102.713C145.548 109.575 151.132 115.157 157.994 115.157C164.856 115.157 170.438 109.575 170.438 102.713V97.573C170.438 88.193 162.808 80.563 153.428 80.563H74.5391C71.7651 80.563 69.5161 78.314 69.5161 75.54C69.5161 72.766 71.7651 70.517 74.5391 70.517H153.428C168.346 70.517 180.483 82.654 180.483 97.572V102.712C180.484 115.113 170.395 125.202 157.995 125.202Z" fill="#ADE0F3"/>
</svg>
